<svg width="800" height="600" xmlns="http://www.w3.org/2000/svg">
    <defs>
        <linearGradient id="grad3" x1="0%" y1="0%" x2="100%" y2="100%">
            <stop offset="0%" style="stop-color:#10B981;stop-opacity:1" />
            <stop offset="100%" style="stop-color:#3B82F6;stop-opacity:1" />
        </linearGradient>
    </defs>
    <rect width="100%" height="100%" fill="#1F2937"/>
    <g transform="translate(200,100)">
        <rect x="0" y="0" width="400" height="400" rx="20" fill="url(#grad3)" opacity="0.9"/>
        <g transform="translate(40,40)">
            <rect x="0" y="0" width="320" height="60" rx="10" fill="#ffffff" opacity="0.2"/>
            <circle cx="30" cy="30" r="15" fill="#ffffff" opacity="0.4"/>
            <rect x="60" y="20" width="200" height="20" rx="5" fill="#ffffff" opacity="0.3"/>
        </g>
        <g transform="translate(40,120)">
            <rect x="0" y="0" width="320" height="60" rx="10" fill="#ffffff" opacity="0.15"/>
            <circle cx="30" cy="30" r="15" fill="#ffffff" opacity="0.4"/>
            <rect x="60" y="20" width="160" height="20" rx="5" fill="#ffffff" opacity="0.3"/>
        </g>
        <g transform="translate(40,200)">
            <rect x="0" y="0" width="320" height="60" rx="10" fill="#ffffff" opacity="0.1"/>
            <circle cx="30" cy="30" r="15" fill="#ffffff" opacity="0.4"/>
            <rect x="60" y="20" width="240" height="20" rx="5" fill="#ffffff" opacity="0.3"/>
        </g>
        <g transform="translate(40,280)">
            <rect x="0" y="0" width="320" height="60" rx="10" fill="#ffffff" opacity="0.05"/>
            <circle cx="30" cy="30" r="15" fill="#ffffff" opacity="0.4"/>
            <rect x="60" y="20" width="180" height="20" rx="5" fill="#ffffff" opacity="0.3"/>
        </g>
    </g>
    <text x="400" y="520" font-family="Arial" font-size="24" fill="#ffffff" text-anchor="middle">Task Manager</text>
</svg> 